<svg xmlns="http://www.w3.org/2000/svg" viewBox="0 0 192 192" width="192" height="192">
  <rect width="192" height="192" rx="36" fill="#FFF4F7"/>
  <circle cx="96" cy="105" r="60" fill="rgba(255,133,162,0.12)"/>
  <!-- ears -->
  <path d="M54 83 L38 30 L75 68Z" fill="#FFF" stroke="#FFB7C5" stroke-width="3"/>
  <path d="M138 83 L154 30 L117 68Z" fill="#FFF" stroke="#FFB7C5" stroke-width="3"/>
  <path d="M56 78 L44 38 L73 66Z" fill="#FFE0EC"/>
  <path d="M136 78 L148 38 L119 66Z" fill="#FFE0EC"/>
  <!-- head -->
  <circle cx="96" cy="103" r="49" fill="#FFF" stroke="#FFB7C5" stroke-width="4"/>
  <!-- blush -->
  <circle cx="62" cy="116" r="11" fill="#FFE0EC" opacity="0.7"/>
  <circle cx="130" cy="116" r="11" fill="#FFE0EC" opacity="0.7"/>
  <!-- eyes -->
  <circle cx="81" cy="99" r="7" fill="#3D2C5E"/>
  <circle cx="111" cy="99" r="7" fill="#3D2C5E"/>
  <circle cx="83.5" cy="96.5" r="2.7" fill="#FFF"/>
  <circle cx="113.5" cy="96.5" r="2.7" fill="#FFF"/>
  <!-- nose & mouth -->
  <ellipse cx="96" cy="110" rx="3" ry="2.3" fill="#FFB7C5"/>
  <path d="M86 118 Q96 130 106 118" stroke="#FFB7C5" stroke-width="2.3" fill="none" stroke-linecap="round"/>
  <!-- whiskers -->
  <line x1="30" y1="101" x2="66" y2="107" stroke="#E8C4B8" stroke-width="1.5" stroke-linecap="round"/>
  <line x1="30" y1="114" x2="66" y2="114" stroke="#E8C4B8" stroke-width="1.5" stroke-linecap="round"/>
  <line x1="126" y1="107" x2="162" y2="101" stroke="#E8C4B8" stroke-width="1.5" stroke-linecap="round"/>
  <line x1="126" y1="114" x2="162" y2="114" stroke="#E8C4B8" stroke-width="1.5" stroke-linecap="round"/>
</svg>
